<svg width="27" height="32" viewBox="0 0 27 32" fill="none" xmlns="http://www.w3.org/2000/svg">
<path d="M0 15.7341C0.0259098 19.2325 1.42718 22.5801 3.90104 25.0538C6.37489 27.5275 9.72267 28.9285 13.221 28.9541C16.7199 28.9306 20.0688 27.5302 22.5429 25.056C25.017 22.5819 26.4174 19.233 26.441 15.7341C26.4189 12.6686 25.3408 9.70436 23.3883 7.34093C21.4358 4.9775 18.7283 3.35935 15.722 2.75913V0.919135C15.722 -0.000865459 15.087 -0.247865 14.387 0.258135L10.252 3.14813C10.116 3.21616 10.0016 3.32072 9.92164 3.45009C9.84169 3.57947 9.79934 3.72855 9.79934 3.88063C9.79934 4.03272 9.84169 4.1818 9.92164 4.31117C10.0016 4.44055 10.116 4.54511 10.252 4.61313L14.374 7.51313C15.087 8.03113 15.722 7.78513 15.722 6.85213V5.01513C17.7382 5.48688 19.5806 6.51749 21.0377 7.98871C22.4949 9.45992 23.5077 11.3121 23.96 13.3328C24.4124 15.3535 24.2858 17.4607 23.595 19.4128C22.9042 21.3648 21.677 23.0825 20.0543 24.3688C18.4316 25.6552 16.4792 26.4579 14.421 26.6851C12.3628 26.9122 10.2823 26.5545 8.41818 25.653C6.55406 24.7514 4.98186 23.3426 3.882 21.5882C2.78214 19.8338 2.19917 17.8048 2.2 15.7341C2.19866 13.9949 2.61177 12.2804 3.40512 10.7327C4.19847 9.18491 5.34921 7.8485 6.762 6.83413C7.01466 6.6748 7.19526 6.42325 7.26547 6.13292C7.33567 5.84258 7.28995 5.53631 7.138 5.27913C7.05572 5.14851 6.94608 5.03729 6.81664 4.95316C6.6872 4.86902 6.54105 4.81398 6.38826 4.79183C6.23548 4.76968 6.07971 4.78094 5.93171 4.82485C5.7837 4.86875 5.64699 4.94425 5.531 5.04613C3.83289 6.26656 2.44688 7.87065 1.48577 9.72788C0.524665 11.5851 0.0155993 13.643 0 15.7341Z" fill="white"/>
<path d="M9.66901 21.035C9.78459 21.0388 9.89964 21.0178 10.0064 20.9733C10.1131 20.9288 10.2091 20.8619 10.2878 20.7772C10.3665 20.6924 10.426 20.5918 10.4625 20.482C10.4989 20.3723 10.5114 20.256 10.499 20.141V11.987C10.499 11.352 10.162 10.95 9.57901 10.95C9.18435 10.9732 8.80739 11.1217 8.503 11.374L6.714 12.584C6.58446 12.6624 6.47713 12.7727 6.40222 12.9043C6.3273 13.036 6.2873 13.1846 6.286 13.336C6.28248 13.5401 6.35935 13.7375 6.50004 13.8855C6.64072 14.0335 6.83394 14.1202 7.038 14.127C7.2672 14.13 7.48918 14.0468 7.66 13.894L8.904 12.987H8.866V20.142C8.85279 20.2548 8.86377 20.3692 8.8982 20.4775C8.93263 20.5858 8.98974 20.6855 9.06571 20.77C9.14168 20.8544 9.23478 20.9218 9.3388 20.9675C9.44283 21.0132 9.55539 21.0362 9.66901 21.035ZM16.422 21.19C18.574 21.19 19.986 19.155 19.986 16.044C19.986 12.907 18.573 10.844 16.422 10.844C14.271 10.844 12.858 12.905 12.858 16.044C12.858 19.155 14.271 21.19 16.422 21.19ZM16.422 19.622C15.282 19.622 14.543 18.261 14.543 16.045C14.543 13.79 15.269 12.416 16.422 12.416C17.575 12.416 18.288 13.777 18.288 16.045C18.289 18.261 17.563 19.622 16.422 19.622Z" fill="white"/>
</svg>
