<svg width="20" height="20" viewBox="0 0 20 20" fill="none" xmlns="http://www.w3.org/2000/svg">
<path d="M14.34 0C17.73 0 20 2.38 20 5.92V14.091C20 17.621 17.73 20 14.34 20H5.67C2.28 20 0 17.621 0 14.091V5.92C0 2.38 2.28 0 5.67 0H14.34ZM13.01 6.971C12.8453 6.8071 12.6224 6.71509 12.39 6.71509C12.1576 6.71509 11.9347 6.8071 11.77 6.971L10 8.75L8.22 6.971C8.13865 6.88958 8.04205 6.82498 7.93573 6.78089C7.82941 6.7368 7.71545 6.71409 7.60035 6.71404C7.48526 6.71399 7.37127 6.73662 7.26492 6.78062C7.15857 6.82463 7.06192 6.88915 6.9805 6.9705C6.89908 7.05185 6.83448 7.14845 6.79039 7.25477C6.7463 7.36109 6.72359 7.47505 6.72354 7.59015C6.7235 7.70524 6.74612 7.81922 6.79012 7.92558C6.83413 8.03193 6.89865 8.12858 6.98 8.21L8.76 9.991L6.98 11.761C6.81665 11.9258 6.725 12.1485 6.725 12.3805C6.725 12.6125 6.81665 12.8352 6.98 13C7.1445 13.1649 7.36712 13.2586 7.6 13.261C7.71548 13.2607 7.82975 13.2375 7.93618 13.1927C8.04261 13.1479 8.13909 13.0824 8.22 13L10 11.231L11.78 13C11.858 13.0835 11.9525 13.1498 12.0575 13.1947C12.1626 13.2396 12.2758 13.2622 12.39 13.261C12.5622 13.2601 12.7303 13.2084 12.8733 13.1124C13.0163 13.0165 13.1278 12.8805 13.194 12.7216C13.2601 12.5626 13.278 12.3876 13.2452 12.2185C13.2125 12.0495 13.1307 11.8938 13.01 11.771L11.23 9.991L13.01 8.21C13.1734 8.0452 13.265 7.82254 13.265 7.5905C13.265 7.35846 13.1734 7.1358 13.01 6.971Z" fill="white"/>
</svg>
