<svg width="27" height="32" viewBox="0 0 27 32" fill="none" xmlns="http://www.w3.org/2000/svg">
<path d="M0.440979 15.731C0.466627 19.2295 1.86779 22.5774 4.34167 25.0513C6.81555 27.5252 10.1635 28.9263 13.662 28.952C17.1613 28.9287 20.5107 27.5283 22.9852 25.0539C25.4598 22.5796 26.8604 19.2303 26.884 15.731C26.8687 13.6385 26.3594 11.5793 25.3976 9.72091C24.4357 7.86256 23.0485 6.25768 21.349 5.03697C21.233 4.93492 21.0962 4.85927 20.9481 4.81526C20.8 4.77125 20.6441 4.75993 20.4912 4.78209C20.3383 4.80425 20.192 4.85935 20.0625 4.94359C19.9329 5.02782 19.8232 5.13919 19.741 5.26997C19.589 5.52715 19.5433 5.83342 19.6135 6.12375C19.6837 6.41409 19.8643 6.66564 20.117 6.82497C21.6438 7.92989 22.8613 9.40834 23.6529 11.1187C24.4446 12.8291 24.7837 14.7141 24.638 16.5931C24.4923 18.4721 23.8665 20.2823 22.8206 21.8501C21.7748 23.418 20.3438 24.691 18.6649 25.5473C16.986 26.4036 15.1153 26.8144 13.2321 26.7405C11.3489 26.6665 9.51618 26.1103 7.90957 25.125C6.30296 24.1397 4.97626 22.7584 4.05655 21.1133C3.13684 19.4683 2.65493 17.6147 2.65698 15.73C2.64417 13.243 3.47918 10.8259 5.02435 8.87722C6.56951 6.92849 8.73259 5.56445 11.157 5.00997V6.86397C11.157 7.78397 11.792 8.03097 12.505 7.52497L16.64 4.62497C16.7732 4.5562 16.885 4.45209 16.963 4.32403C17.041 4.19598 17.0823 4.04892 17.0823 3.89897C17.0823 3.74903 17.041 3.60197 16.963 3.47392C16.885 3.34586 16.7732 3.24175 16.64 3.17298L12.522 0.266975C11.796 -0.251025 11.161 -0.00502515 11.161 0.927975V2.75498C8.15442 3.35519 5.44666 4.97345 3.49398 7.33707C1.5413 9.70069 0.463071 12.6652 0.440979 15.731Z" fill="white"/>
<path d="M10.046 21.032C10.1616 21.0359 10.2766 21.0148 10.3834 20.9703C10.4901 20.9259 10.5861 20.859 10.6648 20.7742C10.7434 20.6895 10.803 20.5888 10.8395 20.4791C10.8759 20.3693 10.8884 20.253 10.876 20.138V11.984C10.876 11.349 10.539 10.947 9.95598 10.947C9.55924 10.97 9.18034 11.1197 8.87498 11.374L7.08998 12.581C6.96044 12.6595 6.8531 12.7698 6.77819 12.9014C6.70328 13.033 6.66328 13.1816 6.66198 13.333C6.65846 13.5372 6.73533 13.7345 6.87601 13.8825C7.0167 14.0305 7.20991 14.1172 7.41398 14.124C7.64318 14.127 7.86515 14.0439 8.03598 13.891L9.27998 12.984H9.24198V20.139C9.22876 20.252 9.23976 20.3664 9.27425 20.4748C9.30874 20.5831 9.36593 20.6829 9.44201 20.7674C9.5181 20.8519 9.61132 20.9192 9.71546 20.9648C9.81961 21.0105 9.93228 21.0334 10.046 21.032ZM16.799 21.188C18.951 21.188 20.364 19.153 20.364 16.042C20.364 12.905 18.951 10.842 16.799 10.842C14.647 10.842 13.234 12.903 13.234 16.042C13.234 19.152 14.647 21.188 16.799 21.188ZM16.799 19.619C15.658 19.619 14.92 18.258 14.92 16.041C14.92 13.786 15.646 12.412 16.799 12.412C17.952 12.412 18.666 13.773 18.666 16.041C18.666 18.258 17.94 19.619 16.799 19.619Z" fill="white"/>
</svg>
