<svg width="20" height="20" viewBox="0 0 20 20" fill="none" xmlns="http://www.w3.org/2000/svg">
<path d="M3.41006 2H6.00006C6.26528 2 6.51963 1.89464 6.70717 1.70711C6.8947 1.51957 7.00006 1.26522 7.00006 1C7.00006 0.734784 6.8947 0.48043 6.70717 0.292893C6.51963 0.105357 6.26528 0 6.00006 0H2.00006C1.46963 0 0.96092 0.210714 0.585847 0.585786C0.210775 0.960859 6.10352e-05 1.46957 6.10352e-05 2V6C6.10352e-05 6.26522 0.105418 6.51957 0.292954 6.70711C0.480491 6.89464 0.734845 7 1.00006 7C1.26528 7 1.51963 6.89464 1.70717 6.70711C1.8947 6.51957 2.00006 6.26522 2.00006 6V3.41L6.29006 7.71C6.3833 7.80324 6.49399 7.8772 6.61581 7.92766C6.73763 7.97812 6.8682 8.00409 7.00006 8.00409C7.13192 8.00409 7.26249 7.97812 7.38431 7.92766C7.50613 7.8772 7.61682 7.80324 7.71006 7.71C7.8033 7.61676 7.87726 7.50607 7.92772 7.38425C7.97818 7.26243 8.00415 7.13186 8.00415 7C8.00415 6.86814 7.97818 6.73757 7.92772 6.61575C7.87726 6.49393 7.8033 6.38324 7.71006 6.29L3.41006 2Z" fill="white"/>
<path d="M18.0001 0H14.0001C13.7348 0 13.4805 0.105357 13.293 0.292893C13.1054 0.48043 13.0001 0.734784 13.0001 1C13.0001 1.26522 13.1054 1.51957 13.293 1.70711C13.4805 1.89464 13.7348 2 14.0001 2H16.5901L12.2901 6.29C12.1018 6.4783 11.996 6.7337 11.996 7C11.996 7.2663 12.1018 7.5217 12.2901 7.71C12.4784 7.8983 12.7338 8.00409 13.0001 8.00409C13.2664 8.00409 13.5218 7.8983 13.7101 7.71L18.0001 3.41V6C18.0001 6.26522 18.1054 6.51957 18.293 6.70711C18.4805 6.89464 18.7348 7 19.0001 7C19.2653 7 19.5196 6.89464 19.7072 6.70711C19.8947 6.51957 20.0001 6.26522 20.0001 6V2C20.0001 1.46957 19.7893 0.960859 19.4143 0.585786C19.0392 0.210714 18.5305 0 18.0001 0Z" fill="white"/>
<path d="M6.29006 12.29L2.00006 16.59V14C2.00006 13.7348 1.8947 13.4804 1.70717 13.2929C1.51963 13.1054 1.26528 13 1.00006 13C0.734845 13 0.480491 13.1054 0.292954 13.2929C0.105418 13.4804 6.10352e-05 13.7348 6.10352e-05 14V18C6.10352e-05 18.5304 0.210775 19.0391 0.585847 19.4142C0.96092 19.7893 1.46963 20 2.00006 20H6.00006C6.26528 20 6.51963 19.8946 6.70717 19.7071C6.8947 19.5196 7.00006 19.2652 7.00006 19C7.00006 18.7348 6.8947 18.4804 6.70717 18.2929C6.51963 18.1054 6.26528 18 6.00006 18H3.41006L7.71006 13.71C7.89837 13.5217 8.00415 13.2663 8.00415 13C8.00415 12.7337 7.89837 12.4783 7.71006 12.29C7.52176 12.1017 7.26636 11.9959 7.00006 11.9959C6.73376 11.9959 6.47836 12.1017 6.29006 12.29Z" fill="white"/>
<path d="M19.0001 13C18.7348 13 18.4805 13.1054 18.293 13.2929C18.1054 13.4804 18.0001 13.7348 18.0001 14V16.59L13.7101 12.29C13.5218 12.1017 13.2664 11.9959 13.0001 11.9959C12.7338 11.9959 12.4784 12.1017 12.2901 12.29C12.1018 12.4783 11.996 12.7337 11.996 13C11.996 13.2663 12.1018 13.5217 12.2901 13.71L16.5901 18H14.0001C13.7348 18 13.4805 18.1054 13.293 18.2929C13.1054 18.4804 13.0001 18.7348 13.0001 19C13.0001 19.2652 13.1054 19.5196 13.293 19.7071C13.4805 19.8946 13.7348 20 14.0001 20H18.0001C18.5305 20 19.0392 19.7893 19.4143 19.4142C19.7893 19.0391 20.0001 18.5304 20.0001 18V14C20.0001 13.7348 19.8947 13.4804 19.7072 13.2929C19.5196 13.1054 19.2653 13 19.0001 13Z" fill="white"/>
</svg>
