<svg width="26" height="23" viewBox="0 0 26 23" fill="none" xmlns="http://www.w3.org/2000/svg">
<path d="M25.992 22.148C25.9772 22.3634 25.8812 22.5651 25.7235 22.7124C25.5657 22.8597 25.3579 22.9417 25.142 22.9417C24.9261 22.9417 24.7183 22.8597 24.5605 22.7124C24.4028 22.5651 24.3068 22.3634 24.292 22.148V0.852006C24.3068 0.636648 24.4028 0.434929 24.5605 0.287609C24.7183 0.140288 24.9261 0.0583496 25.142 0.0583496C25.3579 0.0583496 25.5657 0.140288 25.7235 0.287609C25.8812 0.434929 25.9772 0.636648 25.992 0.852006V22.148Z" fill="white"/>
<path fill-rule="evenodd" clip-rule="evenodd" d="M4.21 0.606996C3.82066 0.396857 3.38343 0.29138 2.9411 0.300883C2.49877 0.310386 2.06648 0.434543 1.68652 0.661209C1.30656 0.887875 0.991943 1.20929 0.773446 1.594C0.554948 1.97872 0.440054 2.41356 0.440002 2.856V20.143C0.440054 20.5854 0.554948 21.0203 0.773446 21.405C0.991943 21.7897 1.30656 22.1111 1.68652 22.3378C2.06648 22.5644 2.49877 22.6886 2.9411 22.6981C3.38343 22.7076 3.82066 22.6021 4.21 22.392L20.217 13.748C20.6231 13.5291 20.9624 13.2044 21.1989 12.8082C21.4354 12.4121 21.5603 11.9594 21.5603 11.498C21.5603 11.0366 21.4354 10.5839 21.1989 10.1878C20.9624 9.79162 20.6231 9.46689 20.217 9.248L4.21 0.606996ZM2.14 2.856C2.13993 2.70844 2.17818 2.5634 2.25101 2.43507C2.32383 2.30674 2.42874 2.19953 2.55545 2.12392C2.68216 2.04832 2.82634 2.00692 2.97386 2.00377C3.12138 2.00063 3.26719 2.03586 3.397 2.106L19.404 10.75C19.5394 10.823 19.6525 10.9312 19.7313 11.0632C19.8101 11.1953 19.8518 11.3462 19.8518 11.5C19.8518 11.6538 19.8101 11.8047 19.7313 11.9367C19.6525 12.0688 19.5394 12.177 19.404 12.25L3.4 20.893C3.27019 20.9631 3.12438 20.9984 2.97686 20.9952C2.82934 20.9921 2.68516 20.9507 2.55845 20.8751C2.43174 20.7995 2.32683 20.6922 2.25401 20.5639C2.18118 20.4356 2.14293 20.2905 2.143 20.143L2.14 2.856Z" fill="white"/>
</svg>
