<svg width="26" height="23" viewBox="0 0 26 23" fill="none" xmlns="http://www.w3.org/2000/svg">
<path d="M0 22.148C0.0147821 22.3634 0.11076 22.5651 0.268539 22.7124C0.426319 22.8597 0.634134 22.9417 0.849998 22.9417C1.06586 22.9417 1.27368 22.8597 1.43146 22.7124C1.58924 22.5651 1.68522 22.3634 1.7 22.148V0.852006C1.68522 0.636648 1.58924 0.434929 1.43146 0.287609C1.27368 0.140288 1.06586 0.0583496 0.849998 0.0583496C0.634134 0.0583496 0.426319 0.140288 0.268539 0.287609C0.11076 0.434929 0.0147821 0.636648 0 0.852006V22.148Z" fill="white"/>
<path fill-rule="evenodd" clip-rule="evenodd" d="M21.786 0.606996C22.1753 0.396857 22.6125 0.29138 23.0549 0.300883C23.4972 0.310386 23.9295 0.434543 24.3095 0.661209C24.6894 0.887875 25.004 1.20929 25.2225 1.594C25.441 1.97872 25.5559 2.41356 25.556 2.856V20.143C25.5559 20.5854 25.441 21.0203 25.2225 21.405C25.004 21.7897 24.6894 22.1111 24.3095 22.3378C23.9295 22.5644 23.4972 22.6886 23.0549 22.6981C22.6125 22.7076 22.1753 22.6021 21.786 22.392L5.77897 13.748C5.37285 13.5291 5.03354 13.2044 4.79704 12.8082C4.56054 12.4121 4.43567 11.9594 4.43567 11.498C4.43567 11.0366 4.56054 10.5839 4.79704 10.1878C5.03354 9.79162 5.37285 9.46689 5.77897 9.248L21.786 0.606996ZM23.852 2.856C23.852 2.70844 23.8138 2.5634 23.741 2.43507C23.6681 2.30674 23.5632 2.19953 23.4365 2.12392C23.3098 2.04832 23.1656 2.00692 23.0181 2.00377C22.8706 2.00063 22.7248 2.03586 22.595 2.106L6.58897 10.75C6.4536 10.823 6.34049 10.9312 6.26166 11.0632C6.18283 11.1953 6.1412 11.3462 6.1412 11.5C6.1412 11.6538 6.18283 11.8047 6.26166 11.9367C6.34049 12.0688 6.4536 12.177 6.58897 12.25L22.596 20.894C22.7258 20.9641 22.8716 20.9994 23.0191 20.9962C23.1666 20.9931 23.3108 20.9517 23.4375 20.8761C23.5642 20.8005 23.6691 20.6932 23.742 20.5649C23.8148 20.4366 23.853 20.2915 23.853 20.144L23.852 2.856Z" fill="white"/>
</svg>
