<svg width="21" height="16" viewBox="0 0 21 16" fill="none" xmlns="http://www.w3.org/2000/svg">
<path d="M11.091 14.545C11.091 14.4654 11.0754 14.3866 11.0449 14.3131C11.0145 14.2396 10.9698 14.1728 10.9135 14.1165C10.8573 14.0602 10.7905 14.0156 10.7169 13.9851C10.6434 13.9547 10.5646 13.939 10.485 13.939H3.62604C3.40305 13.9454 3.18121 13.9047 2.97507 13.8194C2.76893 13.7341 2.58315 13.6062 2.4299 13.4441C2.27666 13.282 2.15941 13.0893 2.08584 12.8787C2.01228 12.6681 1.98406 12.4443 2.00304 12.222V3.132C1.98154 2.89904 2.00665 2.66412 2.0769 2.44097C2.14716 2.21781 2.26115 2.01088 2.41223 1.83225C2.56331 1.65361 2.74845 1.50686 2.95685 1.40054C3.16525 1.29422 3.39274 1.23047 3.62604 1.213H17.565C18.0789 1.22622 18.5696 1.42991 18.9417 1.78451C19.3139 2.13912 19.541 2.61935 19.579 3.132V10.304C19.579 10.4647 19.6429 10.6189 19.7565 10.7325C19.8702 10.8462 20.0243 10.91 20.185 10.91C20.3458 10.91 20.4999 10.8462 20.6135 10.7325C20.7272 10.6189 20.791 10.4647 20.791 10.304V3.132C20.7476 2.29927 20.391 1.51373 19.7927 0.932879C19.1944 0.352029 18.3987 0.0187999 17.565 0H3.62604C3.23314 0.0161929 2.8474 0.110458 2.49131 0.277297C2.13522 0.444136 1.81592 0.680209 1.55203 0.971746C1.28814 1.26328 1.08494 1.60445 0.954285 1.97534C0.82363 2.34624 0.768136 2.73943 0.791039 3.132V12.223C0.771791 12.6048 0.831225 12.9864 0.965654 13.3443C1.10008 13.7021 1.30663 14.0285 1.57248 14.3031C1.83834 14.5778 2.15781 14.7949 2.51107 14.9409C2.86434 15.0869 3.24385 15.1588 3.62604 15.152H10.491C10.6518 15.152 10.8059 15.0882 10.9195 14.9745C11.0332 14.8609 11.097 14.7067 11.097 14.546L11.091 14.545Z" fill="white"/>
<path d="M13.863 7.71201C13.8618 7.51272 13.814 7.31647 13.7236 7.13888C13.6331 6.96129 13.5025 6.80725 13.342 6.68901L10.108 4.31601C9.89211 4.15578 9.62992 4.07013 9.36104 4.07201C9.02556 4.0634 8.70034 4.18814 8.45667 4.41888C8.21299 4.64963 8.07072 4.96756 8.06104 5.30301V10.054C8.07072 10.3895 8.21299 10.7074 8.45667 10.9381C8.70034 11.1689 9.02556 11.2936 9.36104 11.285C9.62746 11.287 9.88739 11.2028 10.102 11.045L13.386 8.66501C13.535 8.555 13.6559 8.41132 13.7388 8.2457C13.8217 8.08008 13.8643 7.89721 13.863 7.71201ZM9.38604 10.068C9.30104 10.123 9.28104 10.111 9.27804 10.053L9.27404 5.32001C9.27823 5.30869 9.2851 5.29855 9.29405 5.29045C9.303 5.28236 9.31377 5.27654 9.32545 5.27349C9.33714 5.27045 9.34938 5.27027 9.36115 5.27297C9.37291 5.27568 9.38385 5.28118 9.39304 5.28901L12.674 7.68901L9.38604 10.068Z" fill="white"/>
</svg>
