<svg width="22" height="18" viewBox="0 0 22 18" fill="none" xmlns="http://www.w3.org/2000/svg">
<path d="M9.75777 0C10.3116 0.0239502 10.8424 0.227905 11.2698 0.580911C11.6971 0.933917 11.9977 1.4167 12.1258 1.956C12.2401 2.44755 12.3176 2.94693 12.3578 3.45L12.4048 3.892C12.5851 7.29461 12.5851 10.7044 12.4048 14.107L12.3578 14.565C12.3227 15.0546 12.2477 15.5405 12.1338 16.018C12.0126 16.5602 11.7169 17.0477 11.292 17.4057C10.8672 17.7637 10.3367 17.9725 9.78177 18H9.68177C9.09274 17.9552 8.53478 17.718 8.09377 17.325L4.56277 14.383H2.75177C2.0674 14.3736 1.41334 14.0992 0.927145 13.6175C0.440946 13.1357 0.160494 12.4843 0.144768 11.8C-0.0482559 9.91259 -0.0482559 8.01041 0.144768 6.123C0.19147 5.45611 0.483919 4.83026 0.965511 4.36659C1.4471 3.90291 2.08359 3.63439 2.75177 3.613H4.56277L8.02177 0.719C8.50903 0.30047 9.11727 0.0485575 9.75777 0ZM18.2898 0.221C18.3885 0.150894 18.5003 0.101316 18.6186 0.0752041C18.7368 0.0490923 18.8591 0.0469771 18.9782 0.0689839C19.0972 0.0909908 19.2107 0.136672 19.3118 0.203322C19.4129 0.269972 19.4996 0.356234 19.5668 0.457C21.2037 3.00188 22.0503 5.97454 21.9998 9C22.0506 12.0258 21.204 14.9989 19.5668 17.544C19.4832 17.6671 19.3709 17.7679 19.2394 17.8377C19.108 17.9074 18.9615 17.9439 18.8128 17.944C18.6256 17.944 18.4432 17.8856 18.2908 17.777C18.0905 17.6313 17.9545 17.4135 17.9114 17.1696C17.8683 16.9257 17.9215 16.6745 18.0598 16.469C19.4823 14.2412 20.2146 11.6427 20.1648 9C20.2166 6.3571 19.486 3.75785 18.0648 1.529C17.9261 1.32411 17.8721 1.07353 17.9141 0.829725C17.956 0.585919 18.0906 0.367788 18.2898 0.221ZM15.1278 3.258C15.2266 3.188 15.3385 3.13852 15.4568 3.11247C15.5751 3.08642 15.6974 3.08434 15.8166 3.10633C15.9357 3.12833 16.0492 3.17397 16.1504 3.24055C16.2516 3.30713 16.3384 3.39331 16.4058 3.494C17.462 5.13382 18.009 7.0497 17.9778 9C18.0088 10.95 17.4618 12.8655 16.4058 14.505C16.3391 14.6063 16.2526 14.6931 16.1515 14.7602C16.0504 14.8272 15.9368 14.8731 15.8176 14.8952C15.6983 14.9172 15.5758 14.9149 15.4574 14.8884C15.3391 14.8619 15.2273 14.8118 15.1288 14.741C14.9284 14.5953 14.7925 14.3775 14.7496 14.1335C14.7067 13.8895 14.7602 13.6383 14.8988 13.433C15.7411 12.1102 16.1739 10.568 16.1428 9C16.1746 7.43178 15.7421 5.88916 14.8998 4.566C14.7612 4.36083 14.7075 4.10994 14.75 3.86603C14.7926 3.62212 14.9279 3.40419 15.1278 3.258Z" fill="white"/>
</svg>
