<svg width="22" height="18" viewBox="0 0 22 18" fill="none" xmlns="http://www.w3.org/2000/svg">
    <path d="M9.75777 0C10.3116 0.0239502 10.8424 0.227905 11.2698 0.580911C11.6971 0.933917 11.9977 1.4167 12.1258 1.956C12.2401 2.44755 12.3176 2.94693 12.3578 3.45L12.4048 3.892C12.5851 7.29461 12.5851 10.7044 12.4048 14.107L12.3578 14.565C12.3227 15.0546 12.2477 15.5405 12.1338 16.018C12.0126 16.5602 11.7169 17.0477 11.292 17.4057C10.8672 17.7637 10.3367 17.9725 9.78177 18H9.68177C9.09274 17.9552 8.53478 17.718 8.09377 17.325L4.56277 14.383H2.75177C2.0674 14.3736 1.41334 14.0992 0.927145 13.6175C0.440946 13.1357 0.160494 12.4843 0.144768 11.8C-0.0482559 9.91259 -0.0482559 8.01041 0.144768 6.123C0.19147 5.45611 0.483919 4.83026 0.965511 4.36659C1.4471 3.90291 2.08359 3.63439 2.75177 3.613H4.56277L8.02177 0.719C8.50903 0.30047 9.11727 0.0485575 9.75777 0Z" fill="white"/>
</svg>
